<svg xmlns="http://www.w3.org/2000/svg" width="1200" height="900" viewBox="0 0 1200 900" fill="none">
  <rect width="1200" height="900" fill="#F7F4EE"/>
  <rect x="30" y="30" width="1140" height="840" rx="20" fill="#FFFFFF" stroke="#D8CEC0" stroke-width="2"/>
  <rect x="60" y="48" width="210" height="40" rx="6" fill="#E5E1D8"/>
  <text x="165" y="75" text-anchor="middle" fill="#1F1B18" font-family="Arial, sans-serif" font-size="25" font-weight="700">नईदुनिया</text>
  <rect x="340" y="48" width="430" height="40" rx="4" fill="#CF3D35"/>
  <text x="555" y="75" text-anchor="middle" fill="#FFFFFF" font-family="Arial, sans-serif" font-size="24" font-weight="700">शहर अपना शहर</text>
  <text x="68" y="118" fill="#7C7A77" font-family="Arial, sans-serif" font-size="18">मध्य प्रदेश, गुरुवार, 12 दिसंबर, 2025</text>
  <text x="1010" y="118" fill="#7C7A77" font-family="Arial, sans-serif" font-size="16">www.naidunia.com</text>

  <rect x="60" y="142" width="1080" height="660" rx="14" fill="#FCFBF8" stroke="#E5DCCA"/>

  <rect x="82" y="168" width="182" height="456" rx="12" fill="#F3EFE5"/>
  <rect x="96" y="188" width="154" height="118" rx="8" fill="#D6D1C6"/>
  <text x="173" y="246" text-anchor="middle" fill="#5D564B" font-family="Arial, sans-serif" font-size="16" font-weight="700">PHOTO</text>
  <text x="96" y="334" fill="#2A2724" font-family="Arial, sans-serif" font-size="20" font-weight="700">शहर को बस अतिक्रमण मुक्त</text>
  <text x="96" y="362" fill="#2A2724" font-family="Arial, sans-serif" font-size="20" font-weight="700">कर दें, तो बन जाएगा महानगर</text>
  <rect x="96" y="388" width="148" height="6" fill="#D9CBB0"/>
  <rect x="96" y="408" width="140" height="6" fill="#E5DCC6"/>
  <rect x="96" y="426" width="146" height="6" fill="#E5DCC6"/>
  <rect x="96" y="444" width="136" height="6" fill="#E5DCC6"/>
  <rect x="96" y="462" width="146" height="6" fill="#E5DCC6"/>
  <rect x="96" y="480" width="122" height="6" fill="#E5DCC6"/>
  <rect x="96" y="516" width="120" height="84" rx="8" fill="#D1C1AA"/>
  <text x="156" y="566" text-anchor="middle" fill="#5C4A39" font-family="Arial, sans-serif" font-size="16" font-weight="700">CA</text>

  <rect x="280" y="168" width="760" height="172" rx="12" fill="#FBFAF6"/>
  <text x="300" y="210" fill="#1F1B18" font-family="Arial, sans-serif" font-size="38" font-weight="700">देवताल से भंवरताल तक जमकर झूमे अनुयायी</text>
  <text x="300" y="244" fill="#B31E24" font-family="Arial, sans-serif" font-size="22" font-weight="700">सांस्कृतिक हुई ओघासन</text>
  <text x="472" y="244" fill="#666" font-family="Arial, sans-serif" font-size="19">आम्र में केक काटा, सच्ची ध्वजा की मस्ती में झूमे...</text>
  <rect x="300" y="266" width="280" height="96" rx="10" fill="#D9D0C2"/>
  <rect x="602" y="266" width="210" height="96" rx="10" fill="#D9D0C2"/>
  <rect x="826" y="266" width="194" height="96" rx="10" fill="#D9D0C2"/>

  <rect x="280" y="362" width="760" height="296" rx="12" fill="#FFFFFF"/>
  <rect x="300" y="382" width="338" height="118" rx="10" fill="#D9D3C8"/>
  <rect x="300" y="518" width="338" height="118" rx="10" fill="#D9D3C8"/>
  <rect x="660" y="382" width="380" height="118" rx="10" fill="#D9D3C8"/>
  <text x="660" y="546" fill="#1F1B18" font-family="Arial, sans-serif" font-size="36" font-weight="700">जबलपुर से भंवरताल तक</text>
  <text x="660" y="590" fill="#1F1B18" font-family="Arial, sans-serif" font-size="36" font-weight="700">धूमधाम से जुड़ी खबर</text>
  <rect x="660" y="612" width="350" height="6" fill="#DDD2BD"/>
  <rect x="660" y="632" width="320" height="6" fill="#E6DDCA"/>
  <rect x="660" y="650" width="300" height="6" fill="#E6DDCA"/>
  <rect x="660" y="668" width="340" height="6" fill="#E6DDCA"/>

  <rect x="82" y="652" width="956" height="132" rx="12" fill="#FAF7F0" stroke="#E7DDCB"/>
  <text x="104" y="692" fill="#26231F" font-family="Arial, sans-serif" font-size="26" font-weight="700">शहर को बस अतिक्रमण मुक्त कर दें, तो बन जाएगा महानगर</text>
  <text x="104" y="726" fill="#5D574F" font-family="Arial, sans-serif" font-size="18">देवताल से भंवरताल तक जमे अनुयायी, सांस्कृतिक और सामाजिक कार्यक्रमों की झलक</text>
  <text x="104" y="756" fill="#5D574F" font-family="Arial, sans-serif" font-size="18">यह page user-uploaded clipping style full-page newspaper layout के रूप में रखा गया है.</text>
</svg>
