<svg xmlns="http://www.w3.org/2000/svg" width="1200" height="900" viewBox="0 0 1200 900" fill="none">
  <rect width="1200" height="900" fill="#FCF5F6"/>
  <rect x="36" y="36" width="1128" height="828" rx="18" fill="#FFFFFF" stroke="#EBC8D0" stroke-width="2"/>
  <rect x="74" y="52" width="186" height="42" rx="6" fill="#153A84"/>
  <text x="167" y="79" text-anchor="middle" fill="#FFFFFF" font-family="Arial, sans-serif" font-size="26" font-weight="700">पत्रिका</text>
  <text x="74" y="128" fill="#C11F3A" font-family="Arial, sans-serif" font-size="21" font-weight="700">माय फाइनेंस: एक्सपर्ट्स का कहना है कि डिजिटल गोल्ड निवेश में बिना खरीदे ही रुपये लग सकते हैं</text>
  <text x="74" y="186" fill="#111111" font-family="Arial, sans-serif" font-size="34" font-weight="700">लोन टाइम सर्विंग के लिए जबलपुरियंस को रास आ रहा गोल्ड इन्वेस्टमेंट</text>

  <rect x="74" y="212" width="260" height="500" rx="14" fill="#FFF8EB" stroke="#E7D8B8"/>
  <text x="94" y="276" fill="#333" font-family="Arial, sans-serif" font-size="22" font-weight="700">पत्रिका plus रिपोर्टर</text>
  <text x="94" y="308" fill="#666" font-family="Arial, sans-serif" font-size="18">patrika.com</text>
  <rect x="94" y="340" width="220" height="150" rx="10" fill="#D8CCAD"/>
  <text x="204" y="420" text-anchor="middle" fill="#FFFFFF" font-family="Arial, sans-serif" font-size="26" font-weight="700">GOLD</text>
  <rect x="94" y="516" width="220" height="34" rx="8" fill="#EFD89A"/>
  <text x="204" y="538" text-anchor="middle" fill="#5B4520" font-family="Arial, sans-serif" font-size="16" font-weight="700">ज्वेलरी के जरिए इन्वेस्टमेंट</text>
  <rect x="94" y="570" width="220" height="112" rx="10" fill="#FCFBF7"/>
  <rect x="112" y="586" width="182" height="8" fill="#D8CDB2"/>
  <rect x="112" y="606" width="168" height="8" fill="#E2DAC6"/>
  <rect x="112" y="626" width="174" height="8" fill="#E2DAC6"/>
  <rect x="112" y="646" width="160" height="8" fill="#E2DAC6"/>

  <rect x="352" y="214" width="772" height="498" rx="14" fill="#FAFAF6" stroke="#E7D8B8"/>
  <rect x="372" y="236" width="340" height="192" rx="12" fill="#D9E9D4"/>
  <text x="542" y="340" text-anchor="middle" fill="#2D5B34" font-family="Arial, sans-serif" font-size="24" font-weight="700">Investment Image</text>
  <rect x="726" y="236" width="372" height="192" rx="12" fill="#D9D3C7"/>
  <text x="912" y="340" text-anchor="middle" fill="#5A5146" font-family="Arial, sans-serif" font-size="24" font-weight="700">Expert View</text>

  <rect x="726" y="460" width="372" height="78" rx="10" fill="#EBE6DA"/>
  <text x="912" y="490" text-anchor="middle" fill="#2F2B25" font-family="Arial, sans-serif" font-size="20" font-weight="700">सीए, अंकित लुनावत</text>
  <text x="912" y="520" text-anchor="middle" fill="#5F584F" font-family="Arial, sans-serif" font-size="16">जबलपुरियों के लिए निवेश और टैक्स नजरिया</text>

  <rect x="726" y="552" width="372" height="78" rx="10" fill="#EBE6DA"/>
  <text x="912" y="582" text-anchor="middle" fill="#2F2B25" font-family="Arial, sans-serif" font-size="20" font-weight="700">सीए, मधु अग्रवाल</text>
  <text x="912" y="612" text-anchor="middle" fill="#5F584F" font-family="Arial, sans-serif" font-size="16">सोना पावरफुल सेविंग और लोन सर्विंग के लिए</text>

  <rect x="372" y="462" width="324" height="142" rx="10" fill="#F8F4E9"/>
  <rect x="392" y="480" width="280" height="8" fill="#D9CCAD"/>
  <rect x="392" y="500" width="264" height="8" fill="#E1D7BC"/>
  <rect x="392" y="520" width="276" height="8" fill="#E1D7BC"/>
  <rect x="392" y="540" width="238" height="8" fill="#E1D7BC"/>
  <rect x="392" y="560" width="248" height="8" fill="#E1D7BC"/>
  <rect x="392" y="580" width="212" height="8" fill="#E1D7BC"/>
</svg>
